PathFileType	4	(X/Y/Z)	D:\Share\Shared_Data\Ergonomics\Sit To Stand Pertubation\S0\Free STS.trc
DataRate	CameraRate	NumFrames	NumMarkers	Units	OrigDataRate	OrigDataStartFrame	OrigNumFrames	
100	100	8	18	m	100	2797	211
Frame#	Time	R_Toe			R_ASIS			R_Pelvis			V_Sacral			L_Pelvis			L_ASIS			Clavical			R_Acromium			L_Acromium			Sternum			Torso			R_Thigh_Med			R_Thigh_Lat			R_Thigh			R_Shank_Med			R_Shank_Lat			R_Shank			R_Heel			
		X1	Y1	Z1	X2	Y2	Z2	X3	Y3	Z3	X4	Y4	Z4	X5	Y5	Z5	X6	Y6	Z6	X7	Y7	Z7	X8	Y8	Z8	X9	Y9	Z9	X10	Y10	Z10	X11	Y11	Z11	X12	Y12	Z12	X13	Y13	Z13	X14	Y14	Z14	X15	Y15	Z15	X16	Y16	Z16	X17	Y17	Z17	X18	Y18	Z18	

2797	14.39	0.37684503	0.050421501	0.14524686	0.034698315	0.74726538	0.15858954	-0.086366226	0.7758642	0.2060287	-0.21229077	0.78346887	-0.022927265	-0.069453995	0.76243756	-0.20475479	0.049511471	0.72998358	-0.15678015	0.27605698	1.0169348	-0.0037391672	0.23821027	1.1115925	0.13300739	0.22752165	1.1180852	-0.14672781	0.25159383	0.9229978	-0.021184725	0.25454208	0.97645844	-0.12334476	0.31214456	0.48706244	0.086811424	0.2941712	0.50504697	0.22042593	0.23722699	0.64566827	0.1346279	0.25568372	0.10181112	0.10782928	0.19640332	0.088080078	0.19533719	0.25352129	0.30690015	0.22412236	0.15544301	0.044803783	0.1478636
2798	14.4	0.37686874	0.050377346	0.14512521	0.038541622	0.74826453	0.15839273	-0.081981773	0.77865015	0.20591736	-0.20810094	0.78760907	-0.022941868	-0.065441521	0.7646239	-0.20477979	0.052934246	0.73048193	-0.15679247	0.28380322	1.0145269	-0.0035162911	0.24650058	1.1096847	0.13264796	0.23611487	1.1162094	-0.14651846	0.25834824	0.92099982	-0.021421503	0.26186514	0.97440582	-0.12313911	0.31302441	0.48676932	0.086360985	0.29548285	0.50498242	0.21999738	0.2391953	0.64572235	0.13397821	0.25579417	0.10165636	0.10767068	0.19652122	0.088061546	0.19522913	0.25417906	0.30682697	0.22382442	0.15544136	0.044750172	0.14782802
2799	14.41	0.3768812	0.050328732	0.14500377	0.042386414	0.74930933	0.15820587	-0.07759343	0.78142694	0.20579779	-0.20388335	0.79171332	-0.022961889	-0.061417671	0.76681879	-0.20480591	0.056366524	0.73104254	-0.15678958	0.29134329	1.0122608	-0.0033000112	0.25458401	1.1079164	0.13229047	0.24449599	1.1144825	-0.14629686	0.26494382	0.91916418	-0.021720778	0.2690112	0.97251782	-0.12292751	0.31393906	0.48647778	0.085931435	0.29681815	0.50490494	0.21958951	0.24121246	0.64578021	0.13338281	0.25585913	0.10148679	0.10751453	0.19663118	0.088047348	0.19511485	0.25483794	0.30675229	0.22354083	0.15543294	0.044699417	0.14778763
2800	14.42	0.37688589	0.050276867	0.14488571	0.046220676	0.7503952	0.15803003	-0.073225906	0.78417267	0.20566954	-0.19965591	0.79575751	-0.02299416	-0.057386154	0.76901288	-0.20483195	0.059809399	0.73166284	-0.15676497	0.29864032	1.0101502	-0.0031014259	0.26244028	1.1063031	0.1319357	0.25264081	1.1129166	-0.14606111	0.27136411	0.91749463	-0.022066259	0.27595593	0.97080835	-0.12271117	0.31489624	0.48619449	0.085528236	0.29817163	0.5048064	0.21920958	0.24326855	0.64584064	0.13287215	0.2558766	0.10130038	0.10736141	0.196735	0.088038124	0.19499365	0.25550201	0.30667288	0.22327382	0.15541991	0.044652641	0.14774103
2801	14.43	0.37688593	0.050222889	0.14477429	0.050033737	0.75151874	0.15786667	-0.068901306	0.78687164	0.20553268	-0.19543622	0.79972278	-0.023044897	-0.053350788	0.77119598	-0.20485635	0.063260303	0.73234106	-0.15671556	0.30566751	1.0082134	-0.0029291933	0.27004694	1.1048591	0.13158449	0.26052325	1.111525	-0.14581476	0.27760345	0.91599353	-0.022431353	0.28267953	0.96928925	-0.12248904	0.3159032	0.48592355	0.085155052	0.29954089	0.50468201	0.21886206	0.24535835	0.64590204	0.13246814	0.25584959	0.10109826	0.10721252	0.19683472	0.088034302	0.19486691	0.25617664	0.30658624	0.22302412	0.15540417	0.044610985	0.14768811
2802	14.44	0.37688287	0.050167721	0.14467236	0.053815002	0.75267816	0.15771776	-0.064638535	0.78951697	0.20538841	-0.19124091	0.80359613	-0.023119108	-0.049317055	0.77335834	-0.20487796	0.066715294	0.73307532	-0.15664259	0.31241068	1.0064752	-0.0027893374	0.27738217	1.1035981	0.1312377	0.26811819	1.110324	-0.14556671	0.28366156	0.91466443	-0.022786419	0.28916602	0.96797205	-0.12225928	0.31696527	0.48566629	0.084813911	0.30092303	0.50452991	0.21854877	0.24748189	0.64596356	0.13218143	0.25578859	0.1008865	0.10706927	0.19693147	0.088035637	0.19473775	0.25686432	0.30649103	0.22279141	0.15538727	0.044575218	0.14762982
2803	14.45	0.37687662	0.050111912	0.14458215	0.057553844	0.75387372	0.15758595	-0.060453484	0.79211005	0.20523911	-0.18708495	0.80737048	-0.02322032	-0.045292767	0.7754917	-0.20489656	0.070171295	0.73386487	-0.15655043	0.31886633	1.0049641	-0.002685251	0.28442728	1.1025371	0.13089629	0.2754046	1.1093309	-0.14532915	0.28953546	0.91351721	-0.023108253	0.29540079	0.96686835	-0.1220218	0.31808533	0.48542175	0.084505341	0.30231201	0.50435049	0.2182693	0.24964413	0.64602649	0.13201015	0.25571188	0.10067577	0.10693289	0.19702499	0.088041168	0.19461017	0.25756256	0.30638773	0.2225752	0.15536975	0.044545692	0.14756781
2804	14.46	0.37686594	0.050055279	0.14450452	0.061240261	0.75510742	0.15747458	-0.056359146	0.79465869	0.20508809	-0.18298103	0.81104352	-0.02334944	-0.041287441	0.77759143	-0.20491293	0.073625847	0.73471106	-0.15644443	0.32503796	1.003709	-0.0026182468	0.29116901	1.101696	0.13056142	0.28236761	1.1085637	-0.14511487	0.2952135	0.9125697	-0.023385874	0.3013707	0.96598938	-0.1217805	0.31926227	0.48518729	0.084228432	0.30369998	0.50414658	0.21802017	0.25185254	0.64609473	0.13194067	0.25563907	0.10047701	0.10680438	0.1971138	0.088049622	0.19448854	0.25826416	0.30627863	0.22237572	0.15535179	0.044522362	0.147504
